<svg width="203" height="203" viewBox="0 0 203 203" fill="none" xmlns="http://www.w3.org/2000/svg">
<path d="M171.625 195C179.371 195 185.65 188.72 185.65 180.975C185.65 173.229 179.371 166.95 171.625 166.95C163.88 166.95 157.6 173.229 157.6 180.975C157.6 188.72 163.88 195 171.625 195Z" fill="black" stroke="black" stroke-width="15" stroke-linecap="round" stroke-linejoin="round"/>
<path d="M78.125 195C85.8705 195 92.15 188.72 92.15 180.975C92.15 173.229 85.8705 166.95 78.125 166.95C70.3792 166.95 64.1 173.229 64.1 180.975C64.1 188.72 70.3792 195 78.125 195Z" fill="black" stroke="black" stroke-width="15" stroke-linecap="round" stroke-linejoin="round"/>
<path d="M36.05 26.7H195L176.3 129.55H54.75L36.05 26.7ZM36.05 26.7C34.4916 20.4666 26.7 8 8 8" stroke="black" stroke-width="15" stroke-linecap="round" stroke-linejoin="round"/>
<path d="M176.3 129.55H54.7499H38.2076C21.5243 129.55 12.6749 136.854 12.6749 148.25C12.6749 159.646 21.5243 166.95 38.2076 166.95H171.625" stroke="black" stroke-width="15" stroke-linecap="round" stroke-linejoin="round"/>
</svg>
